<?xml version="1.0" encoding="UTF-8" standalone="no"?>
<svg
   xmlns:dc="http://purl.org/dc/elements/1.1/"
   xmlns:cc="http://creativecommons.org/ns#"
   xmlns:rdf="http://www.w3.org/1999/02/22-rdf-syntax-ns#"
   xmlns:svg="http://www.w3.org/2000/svg"
   xmlns="http://www.w3.org/2000/svg"
   xmlns:sodipodi="http://sodipodi.sourceforge.net/DTD/sodipodi-0.dtd"
   xmlns:inkscape="http://www.inkscape.org/namespaces/inkscape"
   width="210mm"
   height="297mm"
   viewBox="0 0 210 297"
   version="1.1"
   id="svg8"
   inkscape:version="1.0.1 (3bc2e813f5, 2020-09-07)"
   sodipodi:docname="рисунок2.svg">
  <defs
     id="defs2" />
  <sodipodi:namedview
     id="base"
     pagecolor="#ffffff"
     bordercolor="#666666"
     borderopacity="1.0"
     inkscape:pageopacity="0.0"
     inkscape:pageshadow="2"
     inkscape:zoom="0.9914397"
     inkscape:cx="239.14462"
     inkscape:cy="289.70968"
     inkscape:document-units="mm"
     inkscape:current-layer="layer1"
     inkscape:document-rotation="0"
     showgrid="false"
     showguides="false"
     inkscape:guide-bbox="true"
     inkscape:window-width="1500"
     inkscape:window-height="938"
     inkscape:window-x="-6"
     inkscape:window-y="-6"
     inkscape:window-maximized="1" />
  <metadata
     id="metadata5">
    <rdf:RDF>
      <cc:Work
         rdf:about="">
        <dc:format>image/svg+xml</dc:format>
        <dc:type
           rdf:resource="http://purl.org/dc/dcmitype/StillImage" />
        <dc:title></dc:title>
      </cc:Work>
    </rdf:RDF>
  </metadata>
  <g
     inkscape:label="Шар 1"
     inkscape:groupmode="layer"
     id="layer1">
    <rect
       style="fill:#ffaaaa;fill-rule:evenodd;stroke-width:0.334472"
       id="rect325"
       width="209.92068"
       height="297.98004"
       x="0.61206448"
       y="-1.2687335" />
    <rect
       style="fill:#ffd5d5;fill-rule:evenodd;stroke-width:0.331152"
       id="rect327"
       width="209.92068"
       height="292.09256"
       x="0.61206448"
       y="4.6187496" />
    <rect
       style="fill:#c8beb7;fill-rule:evenodd;stroke-width:0.369547"
       id="rect352"
       width="211.16461"
       height="113.65965"
       x="-0.57694727"
       y="183.4709" />
    <path
       style="fill:#dbe3e2;fill-rule:evenodd;stroke-width:0.284779"
       id="ellipse354"
       sodipodi:type="arc"
       sodipodi:cx="105.23825"
       sodipodi:cy="191.97249"
       sodipodi:rx="104.76943"
       sodipodi:ry="105.23853"
       sodipodi:start="0"
       sodipodi:end="3.1511065"
       sodipodi:open="true"
       sodipodi:arc-type="arc"
       d="M 210.00768,191.97249 A 104.76943,105.23853 0 0 1 157.33496,283.27814 104.76943,105.23853 0 0 1 52.279112,282.77616 104.76943,105.23853 0 0 1 0.47356014,190.97128" />
    <path
       sodipodi:type="star"
       style="fill:#ffe680;fill-rule:evenodd;stroke-width:0.264583"
       id="path356"
       sodipodi:sides="5"
       sodipodi:cx="106.58927"
       sodipodi:cy="114.14881"
       sodipodi:r1="110.67153"
       sodipodi:r2="89.535149"
       sodipodi:arg1="0.9259291"
       sodipodi:arg2="1.5542476"
       inkscape:flatsided="true"
       inkscape:rounded="0"
       inkscape:randomized="0"
       d="M 173.11308,202.59524 43.028707,204.74816 0.78287298,81.695862 104.75789,3.4924335 211.26381,78.212359 Z"
       inkscape:transform-center-x="0.57037222"
       inkscape:transform-center-y="5.7868804"
       transform="matrix(1.0078524,0,0,-0.57704286,0.04551766,300.97037)" />
    <path
       sodipodi:type="star"
       style="fill:#fff6d5;fill-rule:evenodd;stroke-width:0.264583"
       id="path358"
       sodipodi:sides="5"
       sodipodi:cx="106.58927"
       sodipodi:cy="114.14881"
       sodipodi:r1="110.67153"
       sodipodi:r2="89.535149"
       sodipodi:arg1="0.9259291"
       sodipodi:arg2="1.5542476"
       inkscape:flatsided="true"
       inkscape:rounded="0"
       inkscape:randomized="0"
       d="M 173.11308,202.59524 43.028707,204.74816 0.78287298,81.695862 104.75789,3.4924335 211.26381,78.212359 Z"
       inkscape:transform-center-x="0.54293272"
       inkscape:transform-center-y="5.5613883"
       transform="matrix(0.95937037,0,0,-0.55455865,6.2061246,297.23745)" />
    <path
       style="fill:#ffffff;fill-opacity:1;fill-rule:nonzero;stroke:none;stroke-width:0.264583"
       id="path423"
       d="m 19.120167,64.772492 c 0.04741,-0.04541 0.198934,-0.169268 0.142219,-0.136216 -3.975358,2.31661 -2.242962,0.504984 -1.856819,1.47583 0.0897,0.225534 0.238,0.808866 0.291631,1.007901 0.09461,0.314254 0.586843,2.436246 1.199039,2.133111 0.875448,-0.433486 1.678616,-0.999766 2.517924,-1.499648 0.720005,-1.38095 1.097299,-2.915222 1.604364,-4.383561 0.122376,-0.338812 0.296567,-0.894726 0.501809,-1.218181 0.0687,-0.10826 0.173307,-0.189006 0.25996,-0.283509 -0.658003,0.426786 -1.393825,0.752625 -1.974009,1.280355 -0.09529,0.08667 0.154637,0.208227 0.209177,0.324922 0.0911,0.194916 0.150247,0.403225 0.22537,0.604835 0.219135,0.532707 0.822734,3.430534 1.84414,2.893864 0.956524,-0.502579 1.813035,-1.176012 2.719552,-1.764017 1.290114,-1.910368 1.941063,-4.141586 2.934378,-6.202439 0.129209,-0.190098 0.234333,-0.399029 0.38763,-0.570293 0.09179,-0.10255 0.452858,-0.31277 0.336704,-0.238954 -0.654863,0.416158 -1.368005,0.756725 -1.953197,1.266214 -0.08236,0.07171 0.162002,0.150344 0.219596,0.243129 0.158274,0.254968 0.404601,0.885356 0.510358,1.140616 0.184168,0.433755 0.676137,1.734021 1.192892,1.883015 0.124534,0.03591 0.275254,0.02669 0.386832,-0.03926 0.854196,-0.504847 1.650534,-1.101744 2.475804,-1.652614 0.928256,-2.034562 1.408626,-4.231365 2.227553,-6.310294 0.509699,-1.320938 1.554819,-2.244212 2.484798,-3.259569 0,0 -2.285633,0.95713 -2.285633,0.95713 v 0 c -0.945859,1.011783 -1.927275,1.983841 -2.401453,3.325098 -0.534834,1.443546 -0.276656,0.695563 -0.768543,2.245575 -0.357672,1.127074 -0.678911,2.297689 -1.197716,3.365714 -0.111048,0.22861 -0.255474,0.439441 -0.383209,0.659164 0.613182,-0.305025 1.206447,-0.653891 1.83955,-0.915072 0.106494,-0.04393 -0.12209,0.231421 -0.235212,0.25322 -0.104831,0.02019 -0.202467,-0.08139 -0.280967,-0.153752 -0.447352,-0.412361 -0.646557,-1.036574 -0.877678,-1.575462 -0.06367,-0.160255 -0.630754,-1.66923 -0.807379,-1.622012 -1.821981,0.487048 -2.393235,0.739796 -3.104589,2.017151 -0.921829,2.075813 -1.58745,4.307819 -2.993812,6.127131 0.530457,-0.229661 1.063111,-0.454313 1.591371,-0.688983 0.14563,-0.06469 -0.290251,0.22337 -0.443294,0.178972 -0.186413,-0.05408 -0.296521,-0.259066 -0.39964,-0.423507 -0.442116,-0.705038 -0.543864,-1.584336 -0.8351,-2.348437 -0.07528,-0.219847 -0.13264,-0.446675 -0.225849,-0.65954 -0.08045,-0.183716 -0.09802,-0.572257 -0.29305,-0.525486 -2.243564,0.538056 -2.580891,1.033968 -3.122547,2.732976 -0.278566,0.822447 -0.535317,1.653514 -0.825036,2.47206 -0.141032,0.39846 -0.361002,1.006412 -0.578791,1.384181 -0.08869,0.153845 -0.209784,0.286584 -0.314676,0.429877 0.628689,-0.321863 1.25709,-0.644284 1.886066,-0.965584 0.07728,-0.03948 -0.146436,0.139713 -0.230974,0.120113 -0.105897,-0.02455 -0.175774,-0.135594 -0.233392,-0.227772 -0.31795,-0.508672 -0.401374,-1.145214 -0.5857,-1.703355 -0.109633,-0.455282 -0.177646,-1.028261 -0.452792,-1.42665 -0.663091,-0.960101 -2.202877,0.465024 -2.658912,1.35018 0,0 2.331252,-1.078169 2.331252,-1.078169 z" />
    <path
       style="fill:#ffffff;fill-opacity:1;fill-rule:nonzero;stroke:none;stroke-width:0.264583"
       id="path425"
       d="m 20.660205,55.962883 c 0.06504,-0.115181 0.143023,-0.22396 0.195121,-0.345544 0.177898,-0.415178 0.406726,-1.20732 0.523768,-1.601581 0.290379,-0.978151 0.551504,-1.960353 0.87075,-2.929596 0.08185,-0.210698 0.131236,-0.437094 0.245548,-0.632097 0.06691,-0.114142 0.399251,-0.343747 0.286203,-0.275011 -0.666443,0.405215 -1.372018,0.768316 -1.953137,1.28855 -0.08525,0.07632 0.171979,0.152667 0.243365,0.242091 0.07706,0.09653 0.506517,0.761103 0.567255,0.854295 0.959298,1.245642 1.06018,0.665607 3.084239,-0.841709 0.184832,-0.137644 0.175793,-0.426405 0.249861,-0.644631 0.170161,-0.501348 0.42049,-1.422447 0.558306,-1.91362 0.29441,-0.954905 0.314765,-1.103614 0.684588,-1.999051 0.100448,-0.24321 0.161346,-0.513757 0.326171,-0.718878 0.08578,-0.106757 0.487323,-0.242435 0.378979,-0.158666 -2.001206,1.547289 -2.390087,0.691579 -1.614467,1.786184 0.161818,0.26506 0.91075,2.007841 1.305507,1.822648 2.633007,-1.235225 2.237785,-0.785971 2.971343,-2.389976 0.514805,-1.189418 0.88152,-2.434095 1.371946,-3.633083 0.228777,-0.559311 0.516721,-1.324314 0.97381,-1.777281 0.132641,-0.131445 0.325736,-0.18271 0.488603,-0.274063 -0.581049,0.4094 -1.260631,0.706279 -1.743144,1.228207 -0.104431,0.112961 0.28275,0.12656 0.407657,0.216363 0.19757,0.142041 0.60439,0.690705 0.956807,0.547796 2.71257,-1.099971 2.378959,-0.926129 3.543176,-2.513788 1.635022,-2.751624 2.551734,-5.842011 3.606644,-8.843447 0,0 -2.093592,0.980422 -2.093592,0.980422 v 0 c -1.025846,3.020036 -1.965029,6.1278 -3.737621,8.812855 -0.02963,0.03373 -2.780948,2.936719 0.751554,0.134062 0.128784,-0.102177 -0.342913,0.0062 -0.48804,-0.07107 -0.173889,-0.09254 -0.270322,-0.288049 -0.422296,-0.413369 -1.125648,-0.928212 -1.005297,-0.08581 -3.121535,0.841999 -0.136406,0.115128 -0.298363,0.205481 -0.409218,0.345382 -0.399405,0.504044 -0.65649,1.21957 -0.8845,1.795103 -0.480012,1.211614 -0.869354,2.460312 -1.443635,3.633319 -0.155858,0.260006 -0.770358,0.794752 -0.467574,0.780018 0.672192,-0.03271 1.24252,-0.523502 1.832954,-0.846458 0.08696,-0.04757 -0.216234,0.06353 -0.297302,0.0065 -0.391448,-0.275423 -0.654603,-1.268068 -0.936697,-1.649682 -0.113074,-0.181091 -0.127769,-0.572693 -0.339227,-0.543274 -0.90609,0.126058 -1.734369,0.588441 -2.575244,0.948743 -0.116441,0.04989 -0.205441,0.159329 -0.267936,0.26952 -0.454833,0.80195 -0.627615,1.877685 -0.959675,2.727434 -0.157318,0.521189 -0.398868,1.388985 -0.627874,1.902327 -0.08979,0.201266 -0.544934,0.618149 -0.329142,0.573397 4.777349,-0.990742 2.262014,-0.566441 1.726946,-1.045723 -0.111338,-0.09973 -0.191175,-0.229828 -0.286762,-0.344741 -0.07825,-0.120772 -0.810564,-1.297107 -0.881069,-1.277565 -2.025723,0.561467 -2.447977,0.664469 -2.909165,2.120688 -0.291384,0.972754 -0.544029,1.956782 -0.861036,2.921802 -0.155189,0.472416 -0.364515,1.12409 -0.634799,1.568778 -0.06625,0.10899 -0.169968,0.190212 -0.254952,0.285319 0,0 2.388538,-0.949886 2.388538,-0.949886 z" />
    <circle
       id="path427"
       style="fill:#000000;stroke:#000000;stroke-width:0.264583"
       cx="24.232006"
       cy="62.599346"
       r="0.022874903" />
    <path
       style="fill:#d7f4ee;fill-opacity:1;fill-rule:evenodd;stroke-width:0.37178"
       id="path506"
       sodipodi:type="arc"
       sodipodi:cx="105.34163"
       sodipodi:cy="-188.60883"
       sodipodi:rx="104.76943"
       sodipodi:ry="179.3618"
       sodipodi:start="0"
       sodipodi:end="3.1511065"
       sodipodi:open="true"
       sodipodi:arc-type="arc"
       d="M 210.11106,-188.60883 A 104.76943,179.3618 0 0 1 157.43834,-32.993328 104.76943,179.3618 0 0 1 52.382491,-33.848877 104.76943,179.3618 0 0 1 0.57693844,-190.31522"
       transform="scale(1,-1)" />
    <path
       sodipodi:type="star"
       style="fill:#ffe680;fill-rule:evenodd;stroke-width:0.264583"
       id="path508"
       sodipodi:sides="5"
       sodipodi:cx="106.58927"
       sodipodi:cy="114.14881"
       sodipodi:r1="110.67153"
       sodipodi:r2="89.535149"
       sodipodi:arg1="0.9259291"
       sodipodi:arg2="1.5542476"
       inkscape:flatsided="true"
       inkscape:rounded="0"
       inkscape:randomized="0"
       d="M 173.11308,202.59524 43.028707,204.74816 0.78287298,81.695862 104.75789,3.4924335 211.26381,78.212359 Z"
       inkscape:transform-center-x="0.56390991"
       inkscape:transform-center-y="-9.1981639"
       transform="matrix(0.99643317,0,0,0.91720125,0.12898718,-0.58151199)" />
    <path
       sodipodi:type="star"
       style="fill:#ffeeaa;fill-rule:evenodd;stroke-width:0.264583"
       id="path510"
       sodipodi:sides="5"
       sodipodi:cx="106.58927"
       sodipodi:cy="114.14881"
       sodipodi:r1="110.67153"
       sodipodi:r2="89.535149"
       sodipodi:arg1="0.9259291"
       sodipodi:arg2="1.5542476"
       inkscape:flatsided="true"
       inkscape:rounded="0"
       inkscape:randomized="0"
       d="M 173.11308,202.59524 43.028707,204.74816 0.78287298,81.695862 104.75789,3.4924335 211.26381,78.212359 Z"
       inkscape:transform-center-x="0.5114805"
       inkscape:transform-center-y="-9.3295743"
       transform="matrix(0.90379318,0,0,0.93030505,9.4452628,3.6625024)" />
    <rect
       style="fill:#deaa87;fill-rule:evenodd;stroke-width:0.2346"
       id="rect512"
       width="210.57523"
       height="11.771941"
       x="0.012435913"
       y="183.4709" />
    <rect
       style="fill:#e9c6af;fill-rule:evenodd;stroke-width:0.148197"
       id="rect514"
       width="211.16463"
       height="4.6844292"
       x="-0.57696533"
       y="183.4709" />
    <path
       style="fill:#ffffff;fill-opacity:1;fill-rule:nonzero;stroke:none;stroke-width:0.264583"
       id="path559"
       d="m 17.682984,68.956885 c 0.245427,-0.596691 0.44926,-1.228601 0.784151,-1.784358 0.06252,-0.103746 0.321908,-0.349165 0.214389,-0.293391 -0.641205,0.332618 -1.229191,0.759081 -1.843787,1.138624 0.125451,0.02564 0.06687,2.64e-4 0.159684,0.234309 0.230251,0.580589 0.1551,0.80413 0.682092,1.232104 2.41998,0.525886 3.267338,-2.25938 3.875105,-3.853267 0.10954,-0.28887 0.218747,-0.577861 0.328619,-0.866603 0.161185,-0.423588 0.328881,-0.937202 0.575914,-1.331045 0.06657,-0.10613 0.357636,-0.342397 0.247359,-0.282956 -1.978951,1.066689 -2.300582,0.588058 -1.76169,1.261303 0.185192,0.569865 0.306944,1.159373 0.433545,1.744348 0.0915,0.422785 0.122623,0.86972 0.397257,1.231945 0.100092,0.132016 0.261262,0.203787 0.391894,0.305683 0.166333,-0.0016 0.350727,0.07081 0.498998,-0.0046 0.869621,-0.442204 1.713566,-0.944343 2.500676,-1.520749 0.226865,-0.166131 0.344787,-0.444814 0.501878,-0.678031 0.629299,-0.934255 1.056071,-1.944095 1.497994,-2.974933 0.410832,-0.903256 0.687416,-1.860354 1.114144,-2.756725 0.08001,-0.168072 0.153845,-0.342657 0.26697,-0.490482 0.05423,-0.07086 0.298842,-0.194993 0.222388,-0.148987 -0.65863,0.39633 -1.312775,0.800068 -1.969162,1.200102 0.278416,0.920329 0.195347,1.918166 0.517668,2.827748 0.05988,0.168992 0.158158,0.321812 0.237236,0.482716 0.307285,0.255289 0.372229,0.449472 0.83589,0.183417 0.850435,-0.487992 1.693802,-1.001218 2.458752,-1.61459 0.230479,-0.184807 0.330113,-0.490342 0.482206,-0.743604 0.520086,-0.866053 0.680267,-1.22841 1.14523,-2.1502 0.543595,-1.0487 1.011838,-2.133727 1.561161,-3.179516 0.146299,-0.278525 0.429548,-0.857266 0.707461,-1.09519 0.07503,-0.06423 0.184288,-0.07113 0.276432,-0.106693 -0.640287,0.398288 -1.348447,0.703998 -1.920857,1.194861 -0.09104,0.07808 0.105006,0.216524 0.141944,0.330631 0.236897,0.731814 0.344151,1.496031 0.590682,2.227617 0.08185,0.11335 0.304763,0.559721 0.575345,0.432218 0.835501,-0.393708 1.640215,-0.861182 2.394653,-1.393994 0.283372,-0.200126 0.890808,-1.663751 1.050841,-2.003571 0.01035,-0.02262 0.506174,-1.118759 0.568185,-1.21489 0.06272,-0.09724 0.346733,-0.301625 0.2457,-0.245221 -3.131564,1.748282 -2.167618,0.588621 -1.61176,1.342607 1.420246,1.880611 3.575243,-2.253594 4.080555,-3.168801 0.181692,-0.366839 0.363387,-0.733679 0.545081,-1.100516 0,0 -2.020948,0.913374 -2.020948,0.913374 v 0 c -0.188172,0.365612 -0.376346,0.731223 -0.564518,1.096838 -0.37788,0.641691 -0.640352,1.142256 -1.091655,1.7218 -0.117586,0.150998 -0.573135,0.479639 -0.391207,0.420235 0.629589,-0.205571 1.189251,-0.583308 1.783876,-0.874964 -0.05311,-0.0045 -0.115295,0.01651 -0.159337,-0.01352 -0.06644,-0.04529 -0.09612,-0.128918 -0.144182,-0.193379 -1.349031,-2.035484 -2.910467,1.233874 -3.313872,2.259248 -0.198274,0.408686 -0.493273,1.052685 -0.747046,1.43601 -0.116398,0.175819 -0.601303,0.547362 -0.397912,0.491742 0.607949,-0.166257 1.136512,-0.546315 1.69128,-0.845439 0.07338,-0.03957 -0.16437,0.09479 -0.241795,0.06389 -0.10196,-0.04069 -0.145052,-0.16482 -0.217577,-0.24723 -0.05785,-0.160798 -0.124749,-0.318622 -0.173546,-0.482396 -0.172484,-0.578898 -0.23155,-1.187527 -0.410236,-1.763882 -0.04803,-0.154921 -0.02085,-0.482073 -0.18024,-0.45198 -0.805981,0.15217 -1.522243,0.611413 -2.283364,0.917118 -0.402754,0.350972 -0.597686,0.805666 -0.831848,1.282536 -0.515397,1.049599 -0.978188,2.124281 -1.524931,3.158601 -0.463669,0.882345 -0.66784,1.329362 -1.212167,2.14749 -0.164389,0.247079 -0.828411,0.711354 -0.531654,0.714134 0.55304,0.0052 0.98462,-0.509449 1.501942,-0.705048 0.204493,-0.07732 -0.70775,0.65454 -0.646989,0.107582 -0.07646,-0.142335 -0.173315,-0.275473 -0.229391,-0.427005 -0.352943,-0.953752 -0.200951,-2.015686 -0.523867,-2.97615 -0.745905,0.314759 -1.508302,0.592984 -2.237711,0.944279 -0.115366,0.05556 -0.354559,0.645957 -0.375551,0.695984 -0.377925,0.90066 -0.661746,1.837505 -1.063743,2.728701 -0.452902,1.024527 -0.891995,2.039215 -1.569085,2.941653 -0.169165,0.225465 -0.83181,0.670248 -0.551454,0.641062 0.416757,-0.04339 2.335893,-1.130115 1.109718,-0.590466 -0.115052,-0.06329 -0.259169,-0.09063 -0.345154,-0.189865 -0.260853,-0.301066 -0.317211,-0.81825 -0.391712,-1.172681 -0.130512,-0.6209 -0.230286,-1.250555 -0.419202,-1.857512 -0.07638,-0.116205 -0.09816,-0.395293 -0.229151,-0.348612 -0.788241,0.280892 -1.491917,0.763778 -2.197648,1.21341 -0.102915,0.06557 -0.139172,0.201425 -0.194086,0.310399 -0.354096,0.702694 -0.54183,1.474227 -0.857667,2.192835 -0.290295,0.72472 -0.551079,1.530792 -1.008321,2.17511 -0.09375,0.132117 -0.480989,0.416447 -0.330585,0.356251 2.66655,-1.067194 2.306288,-0.993383 1.506303,-0.896204 -0.07406,-0.04229 -0.163452,-0.06503 -0.222176,-0.126881 -0.400239,-0.421521 -0.241331,-1.180635 -0.741653,-1.543167 -0.724202,0.424347 -1.475921,0.804884 -2.172605,1.273038 -0.100033,0.06722 -0.128314,0.204319 -0.184549,0.310917 -0.311589,0.590637 -0.544522,1.221552 -0.81028,1.832967 0,0 2.146673,-1.008158 2.146673,-1.008158 z" />
  </g>
</svg>
